<svg width="256" height="256" viewBox="0 0 500 500" fill="#FFDE17" xmlns="http://www.w3.org/2000/svg">
    <g clip-path="url(#clip0_533_2)">
        <g class='mid-circle'>
        <path d="M250.004 108.474C63.9746 111.721 64.0084 388.304 250.004 391.526C436.008 388.279 435.983 111.696 250.004 108.474ZM250.004 381.793C77.6236 381.082 77.6321 118.892 250.004 118.207C422.368 118.909 422.351 381.108 250.004 381.793Z"/>
        </g>
        <g>
        <path d="M319.738 78.5116C310.638 80.7526 304.042 83.3657 299.636 91.0021C309.886 94.2072 319.712 98.3679 329.015 103.391C336.287 94.2918 343.552 85.9535 352.795 71.9493C345.285 86.9683 341.691 97.4292 337.446 108.279C346.528 113.894 355.027 120.364 362.841 127.569C372.592 108.431 354.791 90.6723 354.207 69.5137C342.647 75.0528 329.979 76.1099 319.746 78.5032L319.738 78.5116Z"/>
        <path d="M408.998 200.364C426.926 188.626 420.423 164.406 430.478 145.801C409.167 145.218 391.89 127.425 372.414 137.167C379.619 144.981 386.08 153.48 391.704 162.554C402.554 158.309 413.015 154.715 428.034 147.205C414.03 156.457 405.691 163.712 396.592 170.985C401.615 180.279 405.784 190.106 408.989 200.364H408.998Z"/>
        <path d="M200.363 91.0021C188.626 73.074 164.406 79.5772 145.793 69.5222C145.201 90.6807 127.408 108.448 137.15 127.577C144.964 120.372 153.463 113.903 162.545 108.288C158.3 97.4292 154.706 86.9767 147.196 71.9577C156.448 85.9619 163.704 94.3002 170.977 103.4C180.27 98.3763 190.097 94.2072 200.355 91.0021H200.363Z"/>
        <path d="M103.856 363.645C112.879 366.258 119.924 367.298 127.577 362.841C120.372 355.027 113.911 346.529 108.296 337.455C97.4459 341.7 86.985 345.294 71.9659 352.803C85.9702 343.56 94.3084 336.296 103.399 329.023C98.3761 319.729 94.207 309.903 91.0019 299.645C73.0738 311.383 79.5769 335.594 69.522 354.207C82.3084 355.197 93.801 360.609 103.856 363.653V363.645Z"/>
        <path d="M396.144 363.645C406.199 360.6 417.691 355.188 430.478 354.199C420.423 335.603 426.917 311.374 408.998 299.636C405.793 309.886 401.624 319.712 396.6 329.015C405.691 336.288 414.038 343.543 428.042 352.795C413.023 345.285 402.562 341.691 391.712 337.455C386.097 346.537 379.628 355.036 372.431 362.841C380.076 367.298 387.129 366.258 396.152 363.645H396.144Z"/>
        <path d="M433.387 275.34C440.575 267.679 447.822 257.235 458.402 249.996C440.448 238.934 433.97 214.909 412.736 213.48C412.66 213.48 412.583 213.48 412.507 213.488C414.799 223.712 416.152 234.292 416.465 245.125C427.983 246.875 438.833 248.989 455.594 249.996C438.841 251.002 427.983 253.116 416.465 254.875C416.152 265.708 414.799 276.288 412.507 286.512C421.328 286.52 426.901 282.097 433.387 275.34Z"/>
        <path d="M254.875 83.5433C265.708 83.8562 276.287 85.2093 286.512 87.501C285.319 66.0888 261.082 59.611 249.996 41.5898C238.909 59.6025 214.681 66.0972 213.488 87.501C223.712 85.2093 234.292 83.8562 245.125 83.5433C246.875 72.0254 248.989 61.167 249.996 44.4144C251.002 61.1755 253.125 72.0254 254.875 83.5433Z"/>
        <path d="M299.628 408.989C311.366 426.918 335.585 420.414 354.199 430.469C354.782 409.319 372.583 391.543 362.833 372.414C355.019 379.619 346.52 386.089 337.437 391.704C341.683 402.554 345.277 413.015 352.786 428.034C343.535 414.03 336.279 405.691 329.006 396.592C319.712 401.615 309.886 405.784 299.628 408.981V408.989Z"/>
        <path d="M103.856 136.355C93.801 139.4 82.3 144.812 69.522 145.801C79.5769 164.397 73.0822 188.634 91.0019 200.364C94.207 190.114 98.3761 180.288 103.399 170.994C94.3 163.721 85.9617 156.465 71.9575 147.214C86.9765 154.723 97.4374 158.309 108.287 162.554C113.903 153.48 120.363 144.981 127.568 137.167C123.983 135.036 120.6 134.19 116.651 134.14C112.71 134.106 108.456 134.968 103.848 136.364L103.856 136.355Z"/>
        <path d="M66.6129 224.66C59.4248 232.321 52.1774 242.748 41.5981 249.996C59.6108 261.074 66.0971 285.319 87.4924 286.512C85.2007 276.288 83.8476 265.708 83.5347 254.875C72.0167 253.125 61.1669 251.011 44.4058 250.004C61.1584 248.998 72.0167 246.884 83.5347 245.125C83.8476 234.292 85.2007 223.712 87.4924 213.488C87.4163 213.488 87.3318 213.48 87.2556 213.48C78.5537 213.573 73.04 217.97 66.6045 224.66H66.6129Z"/>
        <path d="M245.125 416.448C234.292 416.135 223.712 414.782 213.488 412.49C214.681 433.903 238.909 440.381 249.996 458.402C261.074 440.381 285.319 433.894 286.512 412.49C276.287 414.782 265.708 416.135 254.875 416.448C253.125 427.966 251.01 438.825 249.996 455.577C248.989 438.816 246.867 427.966 245.116 416.448H245.125Z"/>
        <path d="M137.158 372.423C127.408 391.552 145.209 409.319 145.793 430.478C164.389 420.423 188.626 426.926 200.363 408.998C190.114 405.801 180.279 401.632 170.985 396.6C163.712 405.7 156.457 414.038 147.205 428.042C154.714 413.023 158.309 402.571 162.545 391.712C153.463 386.097 144.964 379.628 137.158 372.423Z"/>
        <path d="M438.055 136.288L449.057 135.078C441.607 144.118 435.949 154.021 434.216 166.292C441.302 167.154 447.501 169.455 453.827 172.135C458.173 157.294 458.461 140.93 466.52 125.006C448.693 124.025 434.393 116.076 419.357 112.423C418.52 119.239 417.412 125.759 414.613 132.33C422.613 135.019 430.402 137.116 438.072 136.279L438.055 136.288Z"/>
        <path d="M269.607 451.383C259.856 459.011 254.097 468.888 249.996 479.848C245.886 468.879 240.144 459.027 230.385 451.383C226.089 457.091 221.006 461.311 215.518 465.446C226.19 476.634 240.237 485.057 249.996 500C259.763 485.057 273.793 476.634 284.473 465.446C278.985 461.319 273.894 457.091 269.607 451.383Z"/>
        <path d="M333.708 65.8013C345.962 64.0676 355.89 58.4017 364.922 50.9598C362.994 62.5116 363.044 73.9197 367.67 85.4123C374.241 82.6131 380.761 81.5053 387.577 80.6681C383.932 65.6406 375.975 51.3319 374.994 33.5137C359.061 41.5729 342.706 41.8435 327.865 46.1987C330.546 52.5243 332.846 58.723 333.717 65.8097L333.708 65.8013Z"/>
        <path d="M166.292 434.207C154.038 435.941 144.101 441.607 135.078 449.057C137.006 437.497 136.956 426.106 132.33 414.613C125.759 417.404 119.239 418.52 112.423 419.357C116.068 434.385 124.025 448.702 125.006 466.52C140.939 458.461 157.294 458.19 172.135 453.835C169.446 447.509 167.154 441.311 166.283 434.216L166.292 434.207Z"/>
        <path d="M469.082 219.18C467.873 217.886 466.664 216.668 465.446 215.526C461.319 221.015 457.091 226.106 451.382 230.402C459.01 240.152 468.879 245.911 479.839 249.996C468.871 254.106 459.019 259.848 451.374 269.598C457.082 273.894 461.311 278.985 465.446 284.474C476.634 273.793 485.057 259.755 500 249.996C486.909 241.488 478.004 228.685 469.082 219.18Z"/>
        <path d="M453.81 327.865C447.493 330.545 441.285 332.846 434.199 333.717C435.932 345.97 441.607 355.899 449.04 364.93C437.488 362.994 426.08 363.044 414.588 367.67C417.387 374.241 418.495 380.761 419.332 387.577C434.359 383.924 448.668 375.983 466.495 374.994C458.435 359.061 458.148 342.706 453.801 327.865H453.81Z"/>
        <path d="M367.67 414.605C363.044 426.089 362.994 437.514 364.922 449.057C355.882 441.607 345.979 435.949 333.708 434.207C332.846 441.294 330.545 447.501 327.856 453.827C342.698 458.173 359.061 458.461 374.985 466.512C375.966 448.685 383.924 434.385 387.569 419.349C380.753 418.512 374.233 417.404 367.662 414.605H367.67Z"/>
        <path d="M132.33 85.4038C136.955 73.9197 137.006 62.4947 135.078 50.9514C144.11 58.4017 154.013 64.0592 166.283 65.7928C167.146 58.7061 169.446 52.4989 172.135 46.1818C157.302 41.8351 140.939 41.556 125.015 33.5053C124.034 51.3319 116.076 65.6321 112.431 80.6596C119.247 81.4968 125.767 82.6046 132.338 85.4038H132.33Z"/>
        <path d="M230.385 48.6258C240.135 40.9979 245.894 31.1205 249.996 20.1607C254.106 31.129 259.848 40.981 269.607 48.6258C273.903 42.9175 278.994 38.6977 284.474 34.5624C273.801 23.3742 259.755 14.9429 249.996 0C240.228 14.9429 226.199 23.3742 215.526 34.5624C221.006 38.6977 226.097 42.9175 230.393 48.6258H230.385Z"/>
        <path d="M61.9449 363.721L50.9428 364.93C58.3931 355.89 64.0507 345.979 65.7843 333.717C58.6976 332.854 52.4989 330.554 46.1817 327.873C41.8435 342.715 41.5475 359.078 33.4883 375.002C51.3149 375.983 65.6151 383.924 80.6511 387.586C81.4883 380.77 82.5961 374.249 85.3953 367.679C77.3953 364.989 69.6067 362.892 61.9365 363.729L61.9449 363.721Z"/>
        <path d="M34.5538 284.474C38.6891 278.985 42.909 273.894 48.6172 269.598C40.9893 259.856 31.112 254.089 20.1521 249.996C31.1289 245.903 40.9724 240.152 48.6088 230.393C42.9005 226.097 38.6722 221.015 34.5454 215.526C23.3572 226.207 14.9344 240.237 -0.00854492 249.996C14.9428 259.763 23.3572 273.793 34.5454 284.474H34.5538Z"/>
        <path d="M46.1817 172.135C52.4989 169.455 58.6976 167.154 65.7843 166.292C64.0507 154.038 58.3762 144.11 50.9428 135.078C62.4946 137.015 73.9027 136.964 85.3953 132.338C82.5961 125.767 81.4798 119.247 80.6511 112.431C65.6236 116.085 51.3149 124.025 33.4883 125.015C41.5475 140.939 41.835 157.294 46.1817 172.144V172.135Z"/>
        <path d="M370.782 94.3932C373.547 102.461 376.253 110.723 375.475 119.442C386.909 109.877 399.492 99.4419 413.167 86.833C400.558 100.507 390.122 113.091 380.558 124.524C389.268 123.746 397.539 126.444 405.606 129.218C411.154 115.214 409.023 101.903 414.012 86.0042C398.105 90.9937 384.795 88.8457 370.799 94.4017L370.782 94.3932Z"/>
        <path d="M474.029 189.962C457.759 186.326 447.306 177.818 432.406 175.636C430.774 184.008 428.981 192.516 423.941 199.67C438.63 197.099 454.74 194.351 472.888 190.266C455.129 195.806 439.805 201.48 425.801 206.605C433.742 210.283 439.552 216.761 445.15 223.197C456.964 213.844 461.759 201.243 474.038 189.962H474.029Z"/>
        <path d="M300.321 423.941C302.892 438.63 305.632 454.74 309.717 472.888C304.177 455.129 298.503 439.806 293.387 425.801C289.708 433.734 283.23 439.543 276.803 445.142C286.156 456.956 298.748 461.759 310.029 474.038C313.666 457.767 322.165 447.307 324.363 432.406C315.991 430.774 307.484 428.981 300.33 423.941H300.321Z"/>
        <path d="M223.196 445.142C216.769 439.543 210.291 433.734 206.613 425.801C201.497 439.806 195.814 455.129 190.283 472.888C194.368 454.74 197.116 438.63 199.678 423.941C192.524 428.973 184.008 430.765 175.645 432.406C177.835 447.315 186.342 457.767 189.979 474.038C201.26 461.759 213.843 456.956 223.205 445.142H223.196Z"/>
        <path d="M405.598 370.782C397.539 373.556 389.268 376.254 380.549 375.476C390.114 386.909 400.549 399.493 413.167 413.167C399.492 400.558 386.909 390.123 375.475 380.558C376.253 389.277 373.556 397.539 370.782 405.607C384.786 411.163 398.089 409.015 413.995 414.004C409.006 398.097 411.146 384.795 405.59 370.791L405.598 370.782Z"/>
        <path d="M454.165 285.852C451.349 282.419 448.499 279.34 445.142 276.786C439.543 283.222 433.734 289.7 425.801 293.387C439.805 298.503 455.129 304.186 472.888 309.717C454.74 305.632 438.63 302.884 423.949 300.321C428.981 307.476 430.782 315.983 432.406 324.355C447.315 322.156 457.759 313.658 474.038 310.021C465.48 302.114 460.076 293.049 454.173 285.852H454.165Z"/>
        <path d="M199.67 76.0592C197.099 61.37 194.351 45.26 190.266 27.1121C195.805 44.871 201.48 60.1945 206.604 74.1987C210.283 66.2664 216.761 60.4567 223.188 54.8584C213.835 43.0444 201.251 38.241 189.962 25.9619C186.325 42.2326 177.826 52.6934 175.628 67.6025C184 69.2347 192.507 71.0275 199.67 76.0677V76.0592Z"/>
        <path d="M276.803 54.8499C283.23 60.4482 289.708 66.2579 293.387 74.1903C298.503 60.1861 304.186 44.8626 309.717 27.1036C305.632 45.2516 302.884 61.37 300.321 76.0507C307.476 71.019 315.991 69.2178 324.363 67.5856C322.165 52.685 313.666 42.2157 310.029 25.945C298.748 38.2241 286.165 43.0275 276.803 54.833V54.8499Z"/>
        <path d="M94.4015 129.218C102.469 126.444 110.731 123.746 119.45 124.524C109.886 113.091 99.4501 100.507 86.8328 86.833C100.507 99.4419 113.091 109.877 124.524 119.442C123.746 110.732 126.444 102.461 129.218 94.3933C115.213 88.8372 101.911 90.9768 85.9956 85.9958C90.9766 101.903 88.8455 115.214 94.4015 129.209V129.218Z"/>
        <path d="M67.594 324.364C69.2261 315.992 71.0189 307.484 76.0591 300.321C61.3699 302.892 45.2599 305.632 27.1204 309.717C44.8794 304.178 60.2029 298.503 74.2071 293.387C66.2663 289.708 60.465 283.222 54.8667 276.795C43.0528 286.148 38.2578 298.748 25.9788 310.03C42.2494 313.666 52.7018 322.165 67.6024 324.364H67.594Z"/>
        <path d="M129.218 405.607C126.444 397.539 123.738 389.269 124.524 380.558C113.091 390.123 100.507 400.558 86.8413 413.167C99.4502 399.493 109.886 386.909 119.45 375.476C110.731 376.254 102.469 373.556 94.4015 370.782C88.8455 384.786 90.985 398.097 85.9956 413.996C101.903 409.006 115.213 411.154 129.218 405.598V405.607Z"/>
        <path d="M45.8349 214.14C48.651 217.573 51.4924 220.643 54.8497 223.197C60.448 216.761 66.2577 210.283 74.1985 206.605C60.1943 201.488 44.8709 195.805 27.1119 190.266C45.2599 194.351 61.3698 197.099 76.059 199.662C71.0188 192.507 69.226 183.992 67.5939 175.619C52.6933 177.81 42.2408 186.317 25.9702 189.953C34.5284 197.86 39.9322 206.934 45.8349 214.131V214.14Z"/>
        </g>
        <g>
        <path d="M169.894 235.586L176.972 230.148V269.767H169.894V244.524L162.934 249.844L157.158 254.317L151.383 249.844L144.423 244.524V269.767H137.344V230.148L144.423 235.586L157.158 245.378L169.894 235.586Z"/>
        <path d="M233.683 239.543H240.736V269.844L233.674 264.423L208.262 244.829V269.844H201.201V230.427L208.262 235.848L233.674 255.442V239.535L233.683 239.543Z"/>
        <path d="M233.683 230.148H265.903V236.397H253.319V269.835H246.258V236.397H233.674V230.148H233.683Z"/>
        <path d="M291.315 230.148H298.376V269.835H291.315V251.712H265.903V269.835H258.841V239.543H265.903V244.651H291.315V230.148Z"/>
        <path d="M320.93 251.408C322.03 251.298 323.044 251.011 323.992 250.554C325.844 249.683 327.349 248.372 328.499 246.613C329.649 244.854 330.224 242.918 330.224 240.803C330.224 237.852 329.184 235.34 327.104 233.26C325.023 231.18 322.512 230.14 319.56 230.14H301.59V237.226H319.56C320.584 237.226 321.429 237.564 322.114 238.249C322.833 238.968 323.188 239.839 323.188 240.854C323.188 242.402 322.469 243.501 321.032 244.144C320.575 244.372 320.085 244.482 319.56 244.482L301.59 244.541V251.569H308.677C311.281 251.569 313.285 252.702 314.689 254.968L314.858 255.307L318.655 262.731L322.283 269.818H330.224L326.596 262.731L320.922 251.391L320.93 251.408Z"/>
        <path d="M198.063 247.763L189.091 230.148L180.118 247.763V263.273L180.448 262.613L189.091 245.674L197.733 262.613L198.063 263.273V247.763Z"/>
        <path d="M359.027 262.774L342.486 230.309L328.059 258.63L331.983 266.427L333.852 262.774L342.486 245.835L351.129 262.774L354.74 269.835H362.647L359.027 262.774Z"/>
        </g>
    </g>
</svg>
