<svg width="256" height="256" viewBox="0 0 256 256" fill="none" xmlns="http://www.w3.org/2000/svg">
<path d="M127.999 195.481C39.7408 195.119 39.7456 60.8738 128.004 60.5261C216.255 60.8868 216.245 195.131 127.999 195.481ZM127.999 55.5408C32.7529 57.2043 32.7707 198.815 128.002 200.466C223.237 198.801 223.225 57.1908 127.999 55.5408Z" fill="#FFAC30"/>
<path d="M163.706 40.2C159.049 41.3478 155.668 42.6858 153.412 46.5969C158.661 48.2357 163.692 50.3699 168.452 52.9423C172.177 48.2847 175.893 44.0159 180.629 36.8448C176.784 44.5355 174.944 49.8893 172.771 55.4471C177.421 58.3242 181.774 61.6353 185.774 65.3243C190.765 55.5259 181.653 46.4341 181.351 35.5983C175.431 38.4334 168.945 38.9738 163.706 40.2Z" fill="#FFAC30"/>
<path d="M209.407 102.59C218.586 96.5784 215.258 84.1812 220.407 74.6535C209.495 74.3569 200.649 65.2469 190.68 70.231C194.368 74.23 197.679 78.5815 200.556 83.23C206.113 81.0573 211.466 79.2175 219.157 75.3726C211.986 80.1082 207.718 83.8245 203.06 87.5494C205.633 92.3092 207.768 97.3405 209.407 102.59Z" fill="#FFAC30"/>
<path d="M102.586 46.5969C96.5744 37.4168 84.1754 40.7481 74.6476 35.5982C74.3458 46.4293 65.2341 55.5293 70.2234 65.3238C74.2238 61.6348 78.577 58.3242 83.2276 55.4471C81.0545 49.8897 79.2135 44.535 75.369 36.8448C80.1041 44.0159 83.8208 48.2859 87.5458 52.9435C92.306 50.3708 97.3364 48.2357 102.586 46.5969Z" fill="#FFAC30"/>
<path d="M53.1722 186.188C57.7905 187.524 61.4007 188.057 65.3153 185.774C61.6276 181.776 58.3178 177.424 55.4415 172.775C49.885 174.948 44.5312 176.789 36.8414 180.633C44.0112 175.898 48.2804 172.182 52.9367 168.457C50.3639 163.697 48.2293 158.666 46.5905 153.417C37.4134 159.428 40.7413 171.825 35.5918 181.352C42.1372 181.856 48.0219 184.63 53.1722 186.188Z" fill="#FFAC30"/>
<path d="M202.827 186.188C207.978 184.63 213.862 181.856 220.407 181.352C215.259 171.829 218.585 159.425 209.408 153.417C207.769 158.666 205.634 163.697 203.062 168.457C207.718 172.181 211.988 175.897 219.158 180.632C211.468 176.787 206.114 174.947 200.557 172.775C197.68 177.424 194.372 181.777 190.683 185.776C194.598 188.057 198.21 187.523 202.827 186.188Z" fill="#FFAC30"/>
<path d="M221.893 140.98C225.574 137.056 229.284 131.71 234.699 128.001C225.508 122.338 222.19 110.035 211.318 109.304C211.28 109.304 211.24 109.308 211.201 109.309C212.374 114.543 213.067 119.958 213.226 125.507C219.124 126.403 224.679 127.487 233.259 128.002C224.68 128.518 219.124 129.601 213.226 130.499C213.067 136.047 212.376 141.463 211.203 146.698C215.718 146.704 218.57 144.438 221.893 140.98Z" fill="#FFAC30"/>
<path d="M130.496 42.7784C136.044 42.9382 141.459 43.631 146.694 44.8039C146.083 33.8421 133.676 30.5246 127.999 21.2964C122.324 30.5207 109.916 33.8443 109.305 44.8026C114.539 43.6301 119.955 42.9382 125.503 42.7784C126.4 36.8803 127.483 31.3234 127.999 22.7426C128.514 31.3239 129.599 36.8803 130.496 42.7784Z" fill="#FFAC30"/>
<path d="M153.412 209.409C159.423 218.589 171.823 215.256 181.351 220.407C181.652 209.577 190.766 200.476 185.774 190.683C181.774 194.372 177.421 197.683 172.771 200.56C174.944 206.116 176.786 211.471 180.63 219.161C175.895 211.99 172.178 207.72 168.453 203.063C163.693 205.636 158.661 207.769 153.412 209.409Z" fill="#FFAC30"/>
<path d="M53.1722 69.8177C48.0219 71.3755 42.1372 74.1492 35.5918 74.6537C40.74 84.1763 37.4134 96.5821 46.5918 102.588C48.231 97.3398 50.3665 92.309 52.9389 87.5496C48.2821 83.8251 44.012 80.1088 36.8414 75.3741C44.5316 79.2182 49.8868 81.0566 55.4441 83.2285C58.3204 78.5804 61.6293 74.2293 65.3166 70.2312C63.4807 69.1388 61.7484 68.7084 59.7285 68.6794C57.7086 68.6612 55.532 69.1041 53.1722 69.8177Z" fill="#FFAC30"/>
<path d="M34.1055 115.028C30.4247 118.951 26.7136 124.291 21.2992 128.001C30.5213 133.673 33.8427 146.088 44.7968 146.697C43.6243 141.462 42.9315 136.046 42.7721 130.498C36.8749 129.601 31.318 128.519 22.7388 128.003C31.3184 127.488 36.8749 126.403 42.7721 125.506C42.9319 119.958 43.6251 114.543 44.7981 109.308C44.7587 109.308 44.7175 109.303 44.6786 109.303C40.2232 109.35 37.3984 111.601 34.1055 115.028Z" fill="#FFAC30"/>
<path d="M125.502 213.227C119.954 213.067 114.539 212.375 109.305 211.203C109.917 222.164 122.322 225.481 127.999 234.709C133.673 225.484 146.085 222.161 146.694 211.203C141.459 212.375 136.044 213.067 130.496 213.227C129.599 219.125 128.516 224.682 128 233.263C127.484 224.682 126.399 219.125 125.502 213.227Z" fill="#FFAC30"/>
<path d="M70.2248 190.684C65.2334 200.48 74.3459 209.573 74.6473 220.407C84.1708 215.258 96.5792 218.589 102.586 209.409C97.3365 207.77 92.3048 205.635 87.5446 203.063C83.8205 207.72 80.1051 211.989 75.3699 219.16C79.2144 211.47 81.0533 206.117 83.2247 200.56C78.5762 197.683 74.2238 194.372 70.2248 190.684Z" fill="#FFAC30"/>
<path d="M224.283 69.7801L229.916 69.1605C226.103 73.7908 223.204 78.8615 222.315 85.1432C225.943 85.5852 229.118 86.7625 232.354 88.1364C234.578 80.5393 234.726 72.1593 238.852 64.0067C229.723 63.5031 222.4 59.4357 214.703 57.566C214.276 61.0559 213.706 64.3929 212.274 67.7572C216.368 69.1354 220.359 70.2096 224.283 69.7801Z" fill="#FFAC30"/>
<path d="M138.039 231.111C133.049 235.017 130.099 240.075 127.999 245.685C125.896 240.068 122.954 235.023 117.96 231.111C115.762 234.033 113.156 236.194 110.347 238.31C115.813 244.037 123.001 248.351 127.999 256C132.999 248.349 140.185 244.039 145.652 238.31C142.843 236.195 140.237 234.033 138.039 231.111Z" fill="#FFAC30"/>
<path d="M170.859 33.6906C177.135 32.8035 182.218 29.9025 186.839 26.0896C185.854 32.005 185.88 37.8434 188.248 43.7285C191.612 42.297 194.95 41.7277 198.439 41.2999C196.572 33.6066 192.498 26.2793 191.995 17.1559C183.838 21.28 175.465 21.4208 167.864 23.6489C169.239 26.8859 170.417 30.0609 170.859 33.6906Z" fill="#FFAC30"/>
<path d="M85.1401 222.314C78.864 223.202 73.7804 226.102 69.16 229.916C70.1459 223.998 70.1199 218.165 67.7511 212.278C64.3872 213.709 61.0494 214.277 57.5595 214.706C59.4274 222.399 63.5009 229.728 64.0045 238.852C72.1602 234.728 80.5349 234.586 88.1347 232.357C86.7586 229.121 85.5822 225.945 85.1401 222.314Z" fill="#FFAC30"/>
<path d="M240.171 112.223C239.551 111.561 238.931 110.937 238.308 110.352C236.193 113.163 234.031 115.769 231.108 117.967C235.014 122.957 240.068 125.907 245.68 128C240.064 130.103 235.018 133.045 231.106 138.039C234.03 140.236 236.193 142.843 238.309 145.653C244.036 140.186 248.349 132.998 256 128C249.299 123.645 244.738 117.091 240.171 112.223Z" fill="#FFAC30"/>
<path d="M232.354 167.869C229.117 169.243 225.943 170.421 222.314 170.863C223.202 177.139 226.106 182.222 229.915 186.845C224.001 185.852 218.161 185.88 212.277 188.249C213.708 191.613 214.276 194.951 214.704 198.441C222.398 196.571 229.727 192.503 238.851 192C234.725 183.843 234.577 175.471 232.354 167.869Z" fill="#FFAC30"/>
<path d="M188.248 212.278C185.88 218.157 185.854 224.007 186.84 229.916C182.212 226.1 177.142 223.204 170.859 222.314C170.416 225.944 169.239 229.12 167.864 232.358C175.462 234.585 183.842 234.729 191.995 238.852C192.498 229.725 196.573 222.402 198.439 214.705C194.95 214.276 191.612 213.709 188.248 212.278Z" fill="#FFAC30"/>
<path d="M67.7512 43.7285C70.1192 37.8499 70.146 31.9977 69.1597 26.0897C73.7853 29.9064 78.8564 32.7996 85.1364 33.6894C85.5785 30.0597 86.7549 26.8842 88.1305 23.6476C80.5355 21.4217 72.1555 21.2783 64.0042 17.1555C63.5002 26.2823 59.4288 33.6041 57.5596 41.2999C61.0495 41.7277 64.3869 42.2966 67.7512 43.7285Z" fill="#FFAC30"/>
<path d="M117.96 24.8959C122.95 20.9887 125.899 15.9319 127.999 10.3217C130.103 15.9375 133.045 20.983 138.039 24.8959C140.237 21.9733 142.843 19.8127 145.651 17.6963C140.186 11.9688 132.996 7.65105 127.999 0.000244141C122.999 7.65322 115.816 11.967 110.348 17.6963C113.156 19.8127 115.762 21.9733 117.96 24.8959Z" fill="#FFAC30"/>
<path d="M31.7155 186.225L26.0836 186.845C29.8974 182.216 32.794 177.144 33.6834 170.862C30.0554 170.419 26.8812 169.243 23.6455 167.87C21.4226 175.468 21.2732 183.847 17.1477 192C26.2759 192.504 33.5985 196.57 41.2952 198.441C41.7226 194.95 42.2928 191.613 43.7251 188.249C39.6313 186.87 35.6396 185.796 31.7155 186.225Z" fill="#FFAC30"/>
<path d="M17.6904 145.653C19.8055 142.842 21.9687 140.237 24.8918 138.038C20.9854 133.049 15.9299 130.099 10.3197 128.001C15.9381 125.904 20.9794 122.96 24.8909 117.966C21.9679 115.768 19.8055 113.163 17.6917 110.353C11.9651 115.82 7.64996 123.002 0 128.001C7.65299 133.001 11.9612 140.184 17.6904 145.653Z" fill="#FFAC30"/>
<path d="M23.6456 88.1351C26.8818 86.7626 30.056 85.5853 33.6835 85.1432C32.7968 78.8671 29.8927 73.7843 26.0833 69.1605C31.9988 70.1529 37.8402 70.1261 43.7253 67.7572C42.2925 64.3929 41.7223 61.0559 41.2949 57.5661C33.6012 59.4361 26.2726 63.504 17.1479 64.0067C21.2742 72.1619 21.4205 80.5358 23.6456 88.1351Z" fill="#FFAC30"/>
<path d="M189.841 48.3332C191.258 52.463 192.644 56.6954 192.243 61.1573C198.097 56.259 204.539 50.9181 211.54 44.4615C205.082 51.4628 199.741 57.9052 194.842 63.7604C199.304 63.3612 203.537 64.7415 207.666 66.1626C210.508 58.9928 209.416 52.179 211.968 44.035C203.824 46.5879 197.011 45.4898 189.841 48.3332Z" fill="#FFAC30"/>
<path d="M242.705 97.2654C234.374 95.4049 229.024 91.049 221.392 89.9294C220.558 94.2163 219.637 98.573 217.057 102.236C224.577 100.921 232.827 99.5147 242.118 97.4234C233.026 100.258 225.178 103.166 218.009 105.787C222.075 107.672 225.048 110.987 227.916 114.282C233.965 109.494 236.42 103.044 242.705 97.2654Z" fill="#FFAC30"/>
<path d="M153.766 217.06C155.081 224.579 156.486 232.83 158.577 242.121C155.743 233.03 152.837 225.183 150.215 218.014C148.33 222.078 145.016 225.05 141.723 227.916C146.512 233.965 152.958 236.425 158.735 242.71C160.595 234.377 164.949 229.024 166.072 221.392C161.787 220.556 157.43 219.637 153.766 217.06Z" fill="#FFAC30"/>
<path d="M114.276 227.917C110.984 225.05 107.669 222.077 105.784 218.014C103.163 225.184 100.256 233.03 97.4215 242.121C99.5133 232.83 100.919 224.58 102.234 217.06C98.5694 219.637 94.2127 220.556 89.9274 221.392C91.0502 229.025 95.4051 234.378 97.2648 242.71C103.042 236.424 109.486 233.963 114.276 227.917Z" fill="#FFAC30"/>
<path d="M207.666 189.843C203.538 191.263 199.304 192.645 194.842 192.245C199.741 198.099 205.084 204.541 211.541 211.543C204.54 205.086 198.098 199.744 192.243 194.846C192.644 199.308 191.259 203.541 189.841 207.671C197.012 210.516 203.824 209.417 211.969 211.97C209.415 203.825 210.508 197.014 207.666 189.843Z" fill="#FFAC30"/>
<path d="M232.533 146.361C231.089 144.601 229.634 143.028 227.913 141.721C225.047 145.015 222.074 148.332 218.011 150.218C225.18 152.839 233.026 155.747 242.119 158.581C232.828 156.49 224.579 155.084 217.06 153.768C219.636 157.432 220.558 161.788 221.391 166.073C229.023 164.95 234.374 160.597 242.705 158.735C238.324 154.686 235.555 150.044 232.533 146.361Z" fill="#FFAC30"/>
<path d="M102.233 38.9467C100.918 31.4267 99.5117 23.1766 97.4204 13.8844C100.255 22.9761 103.163 30.8231 105.784 37.992C107.669 33.9297 110.983 30.956 114.275 28.0892C109.487 22.0409 103.041 19.5811 97.2646 13.2955C95.4036 21.627 91.0512 26.983 89.925 34.6143C94.2112 35.4478 98.5691 36.3692 102.233 38.9467Z" fill="#FFAC30"/>
<path d="M141.723 28.0881C145.015 30.9549 148.33 33.929 150.215 37.9921C152.836 30.8228 155.743 22.9763 158.577 13.8841C156.486 23.1768 155.08 31.4264 153.765 38.9469C157.429 36.3689 161.787 35.4488 166.073 34.6144C164.95 26.9831 160.595 21.6267 158.734 13.2957C152.957 19.5808 146.513 22.0423 141.723 28.0881Z" fill="#FFAC30"/>
<path d="M48.3318 66.1625C52.4608 64.7427 56.6941 63.3606 61.1568 63.7607C56.258 57.9059 50.9159 51.464 44.4584 44.4627C51.4588 50.9197 57.9003 56.261 63.7552 61.1593C63.3546 56.6975 64.7376 52.4646 66.1582 48.3357C58.9867 45.4897 52.1754 46.5882 44.0293 44.0353C46.5817 52.1793 45.4893 58.9927 48.3318 66.1625Z" fill="#FFAC30"/>
<path d="M34.6066 166.077C35.4414 161.791 36.3615 157.434 38.939 153.768C31.4203 155.083 23.171 156.488 13.8805 158.58C22.9723 155.746 30.8197 152.839 37.9891 150.218C33.9251 148.332 30.9522 145.015 28.085 141.722C22.0349 146.51 19.5794 152.961 13.2947 158.74C21.6249 160.601 26.9757 164.955 34.6066 166.077Z" fill="#FFAC30"/>
<path d="M66.1582 207.672C64.7388 203.542 63.3546 199.309 63.7551 194.846C57.9007 199.744 51.4601 205.087 44.4596 211.544C50.9171 204.542 56.2584 198.1 61.1568 192.245C56.6944 192.645 52.4612 191.263 48.3318 189.843C45.4893 197.013 46.5817 203.826 44.0297 211.97C52.1741 209.417 58.988 210.515 66.1582 207.672Z" fill="#FFAC30"/>
<path d="M23.4668 109.644C24.9095 111.403 26.3647 112.975 28.0837 114.282C30.9496 110.987 33.9251 107.673 37.9904 105.789C30.8206 103.168 22.9727 100.26 13.8805 97.4255C23.1719 99.5169 31.422 100.922 38.9416 102.237C36.3619 98.5725 35.4414 94.2154 34.6066 89.928C26.9757 91.0499 21.6249 95.4048 13.2947 97.2658C17.6761 101.315 20.4445 105.961 23.4668 109.644Z" fill="#FFAC30"/>
<path d="M86.3965 141.649C85.2038 142.233 84.011 142.526 82.8183 142.526C80.4328 142.526 78.3649 141.586 76.6145 139.706C74.8796 137.826 74.0122 133.901 74.0122 127.93C74.0122 121.453 74.8796 117.093 76.6145 114.85C78.3649 112.607 80.4793 111.486 82.9577 111.486C83.8871 111.486 85.0334 111.644 86.3965 111.959V115.656C85.4981 115.292 84.6539 115.111 83.8639 115.111C82.3149 115.111 80.9905 115.916 79.8907 117.528C78.7909 119.123 78.241 122.282 78.241 127.006C78.241 129.817 78.3571 132.021 78.5895 133.616C78.8373 135.196 79.395 136.46 80.2624 137.408C81.1299 138.34 82.2219 138.806 83.5386 138.806C84.3131 138.806 85.2657 138.561 86.3965 138.071V141.649Z" fill="#FFAC30"/>
<path d="M91.5315 112.007H95.5279V123.759H101.685V112.007H105.682V142.194H101.685V127.195H95.5279V142.194H91.5315V112.007Z" fill="#FFAC30"/>
<path d="M126.524 142.194H122.667L121.574 136.223H115.324L114.232 142.194H110.422L116.811 112.007H120.087L126.524 142.194ZM121.04 133.166L118.461 118.855H118.368L115.905 133.166H121.04Z" fill="#FFAC30"/>
<path d="M146.413 142.194H141.836L135.423 126.863H135.306V142.194H131.264V112.007H135.306V126.958H135.423L142.3 112.007H146.366L139.163 126.674L146.413 142.194Z" fill="#FFAC30"/>
<path d="M164.095 142.194H159.959L155.312 128.024H154.963V142.194H150.967V112.007H156.497C161.005 112.007 163.258 114.582 163.258 119.731C163.258 122.069 162.925 123.83 162.259 125.015C161.593 126.2 160.509 127.092 159.006 127.693L164.095 142.194ZM154.963 125.252C156.512 125.221 157.628 124.849 158.309 124.139C159.006 123.412 159.355 122.101 159.355 120.205C159.355 118.389 159.037 117.093 158.402 116.319C157.783 115.545 156.714 115.158 155.196 115.158H154.963V125.252Z" fill="#FFAC30"/>
<path d="M183.589 142.194H179.732L178.64 136.223H172.39L171.298 142.194H167.487L173.877 112.007H177.153L183.589 142.194ZM178.106 133.166L175.526 118.855H175.434L172.971 133.166H178.106Z" fill="#FFAC30"/>
</svg>
